<svg width="1440" height="853" viewBox="0 0 1440 853" fill="none" xmlns="http://www.w3.org/2000/svg">
<path d="M0 0H1440V853H0V0Z" fill="#FAE9D6"/>
<g clip-path="url(#clip0_3226_5)">
<path d="M325.386 534.598H324.588V443.044C324.58 392.787 283.733 351.904 233.535 351.904H233.52C183.33 351.913 142.49 392.798 142.482 443.044V534.599H141.683V443.044C141.691 392.357 182.889 351.113 233.52 351.104H233.535C284.177 351.104 325.378 392.343 325.386 443.044V534.598Z" fill="#1C1C1C"/>
<path d="M317.787 534.599H316.988V443.04C316.988 396.973 279.551 359.494 233.535 359.494C187.519 359.494 150.081 396.973 150.081 443.04V534.599H149.283V443.04C149.283 396.532 187.078 358.694 233.535 358.694C279.992 358.694 317.787 396.532 317.787 443.04V534.599Z" fill="#1C1C1C"/>
<path d="M310.187 534.599H309.388V443.044C309.384 401.178 275.353 367.114 233.535 367.114H233.527C191.71 367.119 157.686 401.181 157.681 443.044V534.599H156.882V443.044C156.887 400.74 191.27 366.319 233.527 366.314H233.535C275.797 366.314 310.183 400.734 310.187 443.044V534.599Z" fill="#1C1C1C"/>
<path d="M302.588 534.598H301.789V443.044C301.789 405.367 271.171 374.715 233.536 374.715C195.901 374.715 165.283 405.367 165.283 443.044V534.599H164.484V443.044C164.484 404.926 195.461 373.915 233.536 373.915C271.612 373.915 302.588 404.926 302.588 443.044V534.598Z" fill="#1C1C1C"/>
<path d="M294.986 534.598H294.187V443.044C294.186 426.825 287.876 411.577 276.42 400.11C264.964 388.643 249.734 382.328 233.535 382.328H233.531C200.091 382.331 172.885 409.568 172.882 443.044V534.599H172.084V443.044C172.086 409.127 199.651 381.531 233.531 381.529H233.535C249.947 381.529 265.377 387.926 276.984 399.545C288.591 411.163 294.985 426.612 294.986 443.044V534.598Z" fill="#1C1C1C"/>
<path d="M287.386 534.598H286.587V443.044C286.587 413.758 262.788 389.932 233.535 389.932C204.281 389.932 180.482 413.758 180.482 443.044V534.599H179.683V443.044C179.683 413.317 203.841 389.133 233.535 389.133C263.229 389.133 287.386 413.317 287.386 443.044V534.598Z" fill="#1C1C1C"/>
<path d="M279.786 534.6H278.988V443.044C278.988 417.953 258.598 397.54 233.535 397.54C208.471 397.54 188.082 417.952 188.082 443.044V534.6H187.283V443.044C187.283 417.512 208.031 396.74 233.535 396.74C259.038 396.74 279.786 417.512 279.786 443.044V534.6Z" fill="#1C1C1C"/>
<path d="M272.187 534.599H271.388V443.044C271.388 422.149 254.408 405.149 233.535 405.149C212.662 405.149 195.681 422.149 195.681 443.044V534.599H194.883V443.044C194.883 421.708 212.222 404.349 233.535 404.349C254.847 404.349 272.187 421.708 272.187 443.044V534.599Z" fill="#1C1C1C"/>
<path d="M264.587 534.599H263.789V443.044C263.789 426.343 250.216 412.756 233.535 412.756C216.853 412.756 203.281 426.343 203.281 443.044V534.599H202.482V443.044C202.482 425.902 216.412 411.957 233.535 411.957C250.657 411.957 264.587 425.902 264.587 443.044V534.599Z" fill="#1C1C1C"/>
<path d="M256.988 534.598H256.189V443.044C256.188 436.986 253.831 431.291 249.552 427.008C245.274 422.726 239.585 420.367 233.535 420.367H233.532C221.043 420.369 210.882 430.541 210.88 443.044V534.599H210.082V443.044C210.083 430.101 220.603 419.569 233.532 419.567H233.535C246.465 419.567 256.986 430.098 256.988 443.044V534.598Z" fill="#1C1C1C"/>
<path d="M248.988 534.598V443.044C248.926 434.5 241.959 427.623 233.424 427.685C224.977 427.746 218.144 434.587 218.082 443.044V534.599" fill="#1C1C1C"/>
<path d="M1216.14 534.927H1149.57V343.437C1149.54 325.033 1164.47 310.034 1182.85 310C1216.14 310 1216.14 325.495 1216.14 343.437V534.927ZM1150.37 534.128H1215.34V343.437C1215.34 325.203 1215.34 310.8 1182.86 310.8C1164.91 310.832 1150.34 325.473 1150.37 343.436V534.128Z" fill="#1E1E1E"/>
<path d="M1191.72 310.4H1191.45C1173.37 310.4 1158.7 325.078 1158.7 343.187V534.58H1224.47V343.187C1224.47 325.078 1209.81 310.4 1191.72 310.4Z" fill="#1E1E1E"/>
<path d="M1248.12 434.763C1243.29 423.946 1244.31 443.959 1241 439.372V446.936L1242.78 454.635H1246.34L1248.12 446.936V434.763H1248.12Z" fill="#E2905A"/>
<path d="M1248.52 417.877H1240.6V402.53C1240.6 401.642 1241.33 400.919 1242.21 400.919H1246.92C1247.8 400.919 1248.52 401.642 1248.52 402.53V417.877H1248.52ZM1241.4 417.078H1247.72V402.53C1247.72 402.083 1247.36 401.719 1246.91 401.719H1242.21C1241.76 401.719 1241.4 402.083 1241.4 402.53V417.078H1241.4Z" fill="#1E1E1E"/>
<path d="M1236.78 417.078V427.769H1240.6V446.936L1242.47 455.032H1246.66L1248.51 447.026L1248.52 427.769H1252.35V417.078H1236.78ZM1247.72 446.89L1246.03 454.232H1243.1L1241.4 446.89V427.769H1247.72V446.89ZM1251.55 426.97H1237.58V417.877H1251.55V426.97Z" fill="#1E1E1E"/>
<path d="M1254.62 387.888L1246.39 395.66C1243.38 389.014 1247.08 384.236 1253.18 380.118C1259.27 376.001 1254.62 387.888 1254.62 387.888Z" fill="#BCD6CA"/>
<path d="M1254.62 387.89L1246.39 395.661C1243.38 389.015 1247.08 384.237 1253.18 380.119" fill="#BCD6CA"/>
<path d="M1246.26 396.336L1246.02 395.826C1242.49 388.034 1248.29 382.941 1252.96 379.788L1253.4 380.451C1246.49 385.119 1244.35 389.621 1246.53 394.979L1254.35 387.599L1254.9 388.181L1246.26 396.336Z" fill="#1E1E1E"/>
<path d="M1259.43 361.945C1259.43 361.945 1273.69 379.521 1273.69 379.798C1273.69 380.076 1272.39 414.904 1272.39 414.904C1272.39 414.904 1266.51 415.396 1265.72 406.631C1264.94 397.867 1264 390.843 1264 390.843" fill="#BCD6CA"/>
<path d="M1272.27 415.306C1271.29 415.306 1266.06 414.917 1265.33 406.666C1264.85 401.398 1264.28 396.14 1263.6 390.895L1264.39 390.788C1264.4 390.859 1265.34 397.921 1266.12 406.594C1266.76 413.702 1270.77 414.446 1272 414.505C1272.14 410.819 1273.23 381.893 1273.29 379.897C1272.57 378.83 1264.5 368.831 1259.12 362.196L1259.74 361.691C1274.09 379.378 1274.09 379.61 1274.09 379.797C1274.09 380.074 1272.92 411.352 1272.79 414.917L1272.77 415.272L1272.42 415.301C1272.37 415.306 1272.32 415.307 1272.27 415.306Z" fill="#1E1E1E"/>
<path d="M1257.08 376.458C1257.08 376.458 1255.34 392.932 1247.3 402.36C1241.78 408.846 1249.39 412.761 1249.39 412.761C1249.39 412.761 1262.59 394.209 1267.04 385.492C1271.48 376.776 1260.49 361.022 1252.71 355.475C1223.53 352.93 1206.79 345.347 1197.63 344.579C1194.74 344.387 1191.87 345.137 1189.44 346.718C1187.01 348.299 1185.16 350.626 1184.16 353.349C1183.65 354.719 1183.27 356.135 1183.03 357.577C1182.59 360.27 1183.09 363.031 1184.43 365.403C1185.78 367.774 1187.9 369.614 1190.43 370.617L1205.11 375.175C1205.11 375.175 1224.27 389.674 1225.25 390.583C1236.23 400.668 1240.64 407.838 1240.64 407.838C1240.64 407.838 1246.26 402.598 1241.82 396.243C1237.37 389.888 1227.09 379.19 1238.59 373.083C1250.08 366.976 1255.54 384.606 1255.54 384.606" fill="#BCD6CA"/>
<path d="M1249.52 413.274L1249.21 413.117C1249.07 413.042 1245.64 411.245 1244.99 408C1244.62 406.089 1245.29 404.105 1247 402.101C1251.25 397.113 1253.73 390.06 1255.12 384.606C1254.75 383.503 1251.79 375.091 1246.21 372.785C1243.89 371.827 1241.39 372.048 1238.77 373.436C1235.98 374.921 1234.38 376.718 1233.89 378.929C1232.85 383.566 1236.97 389.056 1240.27 393.467C1240.95 394.371 1241.59 395.226 1242.14 396.014C1246.74 402.578 1240.97 408.076 1240.91 408.131L1240.56 408.464L1240.3 408.049C1240.26 407.977 1235.78 400.801 1224.98 390.878C1224.05 390.016 1206.07 376.404 1204.93 375.536L1190.31 370.998C1184.93 368.869 1181.71 363.202 1182.63 357.513C1182.88 356.045 1183.26 354.604 1183.79 353.21C1185.88 347.49 1191.58 343.785 1197.66 344.181C1201.01 344.462 1205.35 345.641 1210.85 347.132C1220.67 349.8 1234.13 353.453 1252.75 355.077L1252.86 355.086L1252.95 355.15C1260.5 360.542 1272 376.625 1267.39 385.674C1262.99 394.317 1249.85 412.807 1249.72 412.993L1249.52 413.274ZM1256.68 376.416L1257.48 376.5C1257.46 376.666 1255.63 393.205 1247.61 402.62C1246.07 404.428 1245.45 406.186 1245.78 407.844C1246.24 410.19 1248.47 411.737 1249.28 412.233C1250.99 409.82 1262.61 393.301 1266.68 385.31C1271.08 376.669 1259.93 361.177 1252.57 355.863C1233.94 354.229 1220.47 350.574 1210.64 347.903C1205.18 346.421 1200.87 345.251 1197.6 344.977C1191.88 344.598 1186.51 348.095 1184.54 353.485C1184.03 354.832 1183.66 356.224 1183.42 357.643C1182.56 362.961 1185.57 368.263 1190.58 370.244L1205.35 374.855C1206.14 375.448 1224.53 389.376 1225.52 390.288C1234.91 398.915 1239.57 405.502 1240.7 407.2C1241.82 405.966 1245.1 401.63 1241.49 396.472C1240.94 395.69 1240.31 394.843 1239.63 393.946C1236.23 389.403 1231.99 383.75 1233.11 378.753C1233.64 376.334 1235.43 374.307 1238.4 372.728C1241.23 371.221 1243.96 370.991 1246.51 372.045C1251.49 374.102 1254.4 380.432 1255.46 383.191C1256.37 379.28 1256.68 376.483 1256.68 376.416Z" fill="#1E1E1E"/>
<path d="M1241.44 467.846C1241.92 469.814 1243.08 471.514 1245.11 471.514C1246.08 471.514 1247.01 471.127 1247.7 470.44C1248.38 469.752 1248.77 468.819 1248.77 467.846C1248.77 465.822 1246.48 465.332 1244.7 459.336C1243.97 456.876 1240.57 464.217 1241.44 467.846Z" fill="#E2905A"/>
<path d="M1246.11 517.873C1242.37 517.873 1239.32 514.824 1239.32 511.076C1239.32 507.327 1242.37 504.278 1246.11 504.278C1249.86 504.278 1252.9 507.327 1252.9 511.076C1252.9 514.824 1249.86 517.873 1246.11 517.873ZM1246.11 505.078C1242.81 505.078 1240.12 507.768 1240.12 511.076C1240.12 514.383 1242.81 517.073 1246.11 517.073C1249.41 517.073 1252.1 514.383 1252.1 511.076C1252.1 507.768 1249.41 505.078 1246.11 505.078Z" fill="#1C1C1C"/>
<path d="M1253.4 486.123V476.471H1238.72V486.123H1234.52V535H1257.6V486.123H1253.4ZM1239.52 477.271H1252.6V486.122H1239.52V477.271ZM1256.8 534.2H1235.32V486.923H1256.8V534.2Z" fill="#1E1E1E"/>
<path d="M1256.93 509.167C1254 506.407 1250.15 504.84 1246.13 504.772C1242.1 504.704 1238.2 506.139 1235.18 508.798L1234.66 508.197C1237.82 505.406 1241.92 503.9 1246.14 503.971C1250.36 504.042 1254.4 505.686 1257.48 508.582L1256.93 509.167Z" fill="#1C1C1C"/>
<path d="M1254.6 506.874L1255.92 503.416C1255.93 503.396 1255.93 503.374 1255.92 503.354C1255.91 503.334 1255.9 503.318 1255.88 503.307C1255.86 503.296 1255.84 503.292 1255.82 503.294C1255.8 503.297 1255.78 503.307 1255.76 503.322L1253.41 506.201L1254.6 506.874ZM1252.03 505.574L1253.24 500.793C1253.25 500.781 1253.25 500.769 1253.25 500.756C1253.24 500.744 1253.24 500.732 1253.23 500.721C1253.23 500.711 1253.22 500.701 1253.21 500.694C1253.2 500.686 1253.19 500.681 1253.18 500.678C1253.16 500.672 1253.13 500.674 1253.12 500.681C1253.1 500.689 1253.08 500.703 1253.07 500.72L1250.5 505.047L1252.03 505.574ZM1249.33 504.753L1249.93 499.418C1249.94 499.396 1249.93 499.372 1249.92 499.354C1249.9 499.335 1249.88 499.321 1249.86 499.316C1249.84 499.311 1249.81 499.314 1249.79 499.325C1249.77 499.336 1249.76 499.354 1249.75 499.375L1247.91 504.511L1249.33 504.753ZM1246.78 504.411C1246.78 504.411 1246.28 500.428 1246.05 498.582C1246.05 498.57 1246.04 498.558 1246.04 498.547C1246.03 498.536 1246.02 498.527 1246.01 498.519C1246 498.511 1245.99 498.505 1245.98 498.502C1245.97 498.498 1245.96 498.497 1245.95 498.498C1245.92 498.5 1245.9 498.509 1245.89 498.524C1245.87 498.54 1245.86 498.56 1245.86 498.582L1245.41 504.384L1246.78 504.411ZM1237.63 506.874L1236.31 503.416C1236.3 503.393 1236.3 503.367 1236.31 503.344C1236.32 503.321 1236.34 503.304 1236.37 503.294C1236.38 503.288 1236.4 503.287 1236.42 503.292C1236.44 503.297 1236.46 503.307 1236.47 503.322L1238.83 506.201L1237.63 506.874ZM1240.2 505.574L1238.99 500.793C1238.98 500.781 1238.98 500.768 1238.98 500.755C1238.99 500.743 1238.99 500.731 1239 500.72C1239.01 500.71 1239.01 500.7 1239.02 500.693C1239.03 500.686 1239.05 500.681 1239.06 500.678C1239.1 500.67 1239.14 500.686 1239.16 500.72L1241.73 505.047L1240.2 505.574ZM1242.9 504.753L1242.3 499.418C1242.29 499.393 1242.3 499.368 1242.32 499.349C1242.33 499.329 1242.36 499.317 1242.38 499.314C1242.4 499.312 1242.42 499.317 1242.44 499.328C1242.46 499.339 1242.47 499.356 1242.48 499.375L1244.32 504.511L1242.9 504.753ZM1246.21 518.394C1242.42 518.394 1238.53 516.47 1234.64 512.671L1235.2 512.098C1239.01 515.817 1242.79 517.67 1246.42 517.592C1249.95 517.52 1253.48 515.641 1256.91 512.004L1257.49 512.555C1253.91 516.351 1250.19 518.315 1246.44 518.392L1246.21 518.394Z" fill="#1C1C1C"/>
<path d="M1246.11 514.674C1245.16 514.673 1244.24 514.294 1243.57 513.619C1242.9 512.944 1242.52 512.03 1242.52 511.076C1242.52 509.092 1244.13 507.477 1246.11 507.477C1248.09 507.477 1249.71 509.092 1249.71 511.076C1249.71 513.06 1248.09 514.674 1246.11 514.674ZM1246.11 508.277C1244.57 508.277 1243.32 509.532 1243.32 511.076C1243.32 512.619 1244.57 513.874 1246.11 513.874C1247.65 513.874 1248.91 512.619 1248.91 511.076C1248.91 509.532 1247.65 508.277 1246.11 508.277Z" fill="#1C1C1C"/>
</g>
<path d="M65.5 535.5H1374.5V566.5H65.5V535.5Z" stroke="#1E4844"/>
<g clip-path="url(#clip1_3226_5)">
<path d="M577.681 753.932H577.718C590.641 753.918 603.114 763.829 612.753 781.772C622.578 800.07 635.295 810.174 648.471 810.152C661.646 810.17 674.362 800.066 684.188 781.772C704.177 744.647 734.342 744.647 754.331 781.772C774.685 819.597 805.413 819.597 825.765 781.772C835.4 763.827 847.871 753.915 860.792 753.932H860.836M327 692.525H436.054C449.307 692.525 463.098 686.749 477.045 673.8C484.113 667.221 491.767 663.828 499.507 663.845C513.079 663.829 526.18 674.225 536.312 693.049C546.613 712.207 559.937 722.79 573.741 722.778C587.543 722.786 600.865 712.204 611.162 693.049C621.301 674.22 634.363 663.86 647.945 663.86C661.51 663.845 674.602 674.235 684.728 693.049C695.028 712.202 708.348 722.785 722.15 722.778C735.955 722.788 749.278 712.206 759.578 693.049C769.717 674.22 782.783 663.86 796.361 663.86C809.926 663.844 823.019 674.234 833.144 693.049C843.443 712.204 856.764 722.786 870.566 722.778C884.371 722.791 897.695 712.208 907.995 693.049C918.124 674.228 931.222 663.832 944.792 663.845C952.532 663.828 960.187 667.22 967.254 673.8C981.215 686.749 995.013 692.525 1008.25 692.525H1115.87H327Z" stroke="black" stroke-width="1.0018"/>
</g>
<defs>
<clipPath id="clip0_3226_5">
<rect width="1310" height="225" fill="white" transform="translate(65 310)"/>
</clipPath>
<clipPath id="clip1_3226_5">
<rect width="786" height="154" fill="white" transform="translate(327 660)"/>
</clipPath>
</defs>
</svg>
